{
	"asset":{
		"generator":"Khronos glTF Blender I/O v3.5.30",
		"version":"2.0"
	},
	"scene":0,
	"scenes":[
		{
			"name":"MoveTargetPosEffect",
			"nodes":[
				5
			]
		}
	],
	"nodes":[
		{
			"name":"Object01",
			"rotation":[
				-0.7071067690849304,
				0,
				0,
				0.7071067690849304
			],
			"translation":[
				0.6110349893569946,
				154.21237182617188,
				-0.27315598726272583
			]
		},
		{
			"mesh":0,
			"name":"MovePivot",
			"skin":0
		},
		{
			"mesh":1,
			"name":"PivotPlane01",
			"scale":[
				100,
				100,
				100
			]
		},
		{
			"mesh":2,
			"name":"PivotPlane02",
			"scale":[
				35,
				100,
				35
			]
		},
		{
			"mesh":3,
			"name":"PivotPlane03",
			"scale":[
				65,
				100,
				65
			]
		},
		{
			"children":[
				1,
				2,
				3,
				4,
				0
			],
			"name":"MovePivot_skeleton",
			"scale":[
				0.009999999776482582,
				0.009999999776482582,
				0.009999999776482582
			]
		}
	],
	"animations":[
		{
			"channels":[
				{
					"sampler":0,
					"target":{
						"node":0,
						"path":"translation"
					}
				},
				{
					"sampler":1,
					"target":{
						"node":0,
						"path":"rotation"
					}
				},
				{
					"sampler":2,
					"target":{
						"node":0,
						"path":"scale"
					}
				},
				{
					"sampler":3,
					"target":{
						"node":2,
						"path":"scale"
					}
				},
				{
					"sampler":4,
					"target":{
						"node":3,
						"path":"scale"
					}
				},
				{
					"sampler":5,
					"target":{
						"node":4,
						"path":"rotation"
					}
				}
			],
			"name":"MovePivot",
			"samplers":[
				{
					"input":17,
					"interpolation":"LINEAR",
					"output":18
				},
				{
					"input":17,
					"interpolation":"LINEAR",
					"output":19
				},
				{
					"input":17,
					"interpolation":"LINEAR",
					"output":20
				},
				{
					"input":17,
					"interpolation":"LINEAR",
					"output":21
				},
				{
					"input":17,
					"interpolation":"LINEAR",
					"output":22
				},
				{
					"input":17,
					"interpolation":"LINEAR",
					"output":23
				}
			]
		}
	],
	"materials":[
		{
			"alphaMode":"BLEND",
			"name":"PivotPlane01_material",
			"pbrMetallicRoughness":{
				"baseColorTexture":{
					"index":0
				},
				"metallicFactor":0,
				"roughnessFactor":0.5
			}
		},
		{
			"alphaMode":"BLEND",
			"name":"PivotPlane02_material",
			"pbrMetallicRoughness":{
				"baseColorTexture":{
					"index":1
				},
				"metallicFactor":0,
				"roughnessFactor":0.5
			}
		},
		{
			"alphaCutoff":0.5,
			"alphaMode":"MASK",
			"name":"PivotPlane03_material",
			"pbrMetallicRoughness":{
				"baseColorTexture":{
					"index":2
				},
				"metallicFactor":0,
				"roughnessFactor":0.5
			}
		}
	],
	"meshes":[
		{
			"name":"MoveTargetPosEffect",
			"primitives":[
				{
					"attributes":{
						"POSITION":0,
						"TEXCOORD_0":1,
						"NORMAL":2,
						"JOINTS_0":3,
						"WEIGHTS_0":4
					},
					"indices":5
				}
			]
		},
		{
			"name":"Plane",
			"primitives":[
				{
					"attributes":{
						"POSITION":7,
						"TEXCOORD_0":8,
						"NORMAL":9
					},
					"indices":10,
					"material":0
				}
			]
		},
		{
			"name":"Plane.001",
			"primitives":[
				{
					"attributes":{
						"POSITION":11,
						"TEXCOORD_0":12,
						"NORMAL":13
					},
					"indices":10,
					"material":1
				}
			]
		},
		{
			"name":"Plane.002",
			"primitives":[
				{
					"attributes":{
						"POSITION":14,
						"TEXCOORD_0":15,
						"NORMAL":16
					},
					"indices":10,
					"material":2
				}
			]
		}
	],
	"textures":[
		{
			"sampler":0,
			"source":0
		},
		{
			"sampler":0,
			"source":1
		},
		{
			"sampler":0,
			"source":2
		}
	],
	"images":[
		{
			"mimeType":"image/png",
			"name":"cursorpin01",
			"uri":"MovePivot_material/cursorpin01.png"
		},
		{
			"mimeType":"image/png",
			"name":"cursorpin02",
			"uri":"MovePivot_material/cursorpin02.png"
		},
		{
			"mimeType":"image/png",
			"name":"empact01",
			"uri":"MovePivot_material/empact01.png"
		}
	],
	"skins":[
		{
			"inverseBindMatrices":6,
			"joints":[
				0
			],
			"name":"MovePivot_skeleton"
		}
	],
	"accessors":[
		{
			"bufferView":0,
			"componentType":5126,
			"count":68,
			"max":[
				0.24745897948741913,
				1.9373918771743774,
				0.2056649923324585
			],
			"min":[
				-0.11561599373817444,
				0.6212179660797119,
				-0.2135779857635498
			],
			"type":"VEC3"
		},
		{
			"bufferView":1,
			"componentType":5126,
			"count":68,
			"type":"VEC2"
		},
		{
			"bufferView":2,
			"componentType":5126,
			"count":68,
			"type":"VEC3"
		},
		{
			"bufferView":3,
			"componentType":5121,
			"count":68,
			"type":"VEC4"
		},
		{
			"bufferView":4,
			"componentType":5126,
			"count":68,
			"type":"VEC4"
		},
		{
			"bufferView":5,
			"componentType":5123,
			"count":153,
			"type":"SCALAR"
		},
		{
			"bufferView":6,
			"componentType":5126,
			"count":1,
			"type":"MAT4"
		},
		{
			"bufferView":7,
			"componentType":5126,
			"count":4,
			"max":[
				1,
				0,
				1
			],
			"min":[
				-1,
				0,
				-1
			],
			"type":"VEC3"
		},
		{
			"bufferView":8,
			"componentType":5126,
			"count":4,
			"type":"VEC2"
		},
		{
			"bufferView":9,
			"componentType":5126,
			"count":4,
			"type":"VEC3"
		},
		{
			"bufferView":10,
			"componentType":5123,
			"count":6,
			"type":"SCALAR"
		},
		{
			"bufferView":11,
			"componentType":5126,
			"count":4,
			"max":[
				1,
				0,
				1
			],
			"min":[
				-1,
				0,
				-1
			],
			"type":"VEC3"
		},
		{
			"bufferView":12,
			"componentType":5126,
			"count":4,
			"type":"VEC2"
		},
		{
			"bufferView":13,
			"componentType":5126,
			"count":4,
			"type":"VEC3"
		},
		{
			"bufferView":14,
			"componentType":5126,
			"count":4,
			"max":[
				1,
				0,
				1
			],
			"min":[
				-1,
				0,
				-1
			],
			"type":"VEC3"
		},
		{
			"bufferView":15,
			"componentType":5126,
			"count":4,
			"type":"VEC2"
		},
		{
			"bufferView":16,
			"componentType":5126,
			"count":4,
			"type":"VEC3"
		},
		{
			"bufferView":17,
			"componentType":5126,
			"count":35,
			"max":[
				1.4166666666666667
			],
			"min":[
				0
			],
			"type":"SCALAR"
		},
		{
			"bufferView":18,
			"componentType":5126,
			"count":35,
			"type":"VEC3"
		},
		{
			"bufferView":19,
			"componentType":5126,
			"count":35,
			"type":"VEC4"
		},
		{
			"bufferView":20,
			"componentType":5126,
			"count":35,
			"type":"VEC3"
		},
		{
			"bufferView":21,
			"componentType":5126,
			"count":35,
			"type":"VEC3"
		},
		{
			"bufferView":22,
			"componentType":5126,
			"count":35,
			"type":"VEC3"
		},
		{
			"bufferView":23,
			"componentType":5126,
			"count":35,
			"type":"VEC4"
		}
	],
	"bufferViews":[
		{
			"buffer":0,
			"byteLength":816,
			"byteOffset":0,
			"target":34962
		},
		{
			"buffer":0,
			"byteLength":544,
			"byteOffset":816,
			"target":34962
		},
		{
			"buffer":0,
			"byteLength":816,
			"byteOffset":1360,
			"target":34962
		},
		{
			"buffer":0,
			"byteLength":272,
			"byteOffset":2176,
			"target":34962
		},
		{
			"buffer":0,
			"byteLength":1088,
			"byteOffset":2448,
			"target":34962
		},
		{
			"buffer":0,
			"byteLength":306,
			"byteOffset":3536,
			"target":34963
		},
		{
			"buffer":0,
			"byteLength":64,
			"byteOffset":3844
		},
		{
			"buffer":0,
			"byteLength":48,
			"byteOffset":3908,
			"target":34962
		},
		{
			"buffer":0,
			"byteLength":32,
			"byteOffset":3956,
			"target":34962
		},
		{
			"buffer":0,
			"byteLength":48,
			"byteOffset":3988,
			"target":34962
		},
		{
			"buffer":0,
			"byteLength":12,
			"byteOffset":4036,
			"target":34963
		},
		{
			"buffer":0,
			"byteLength":48,
			"byteOffset":4048,
			"target":34962
		},
		{
			"buffer":0,
			"byteLength":32,
			"byteOffset":4096,
			"target":34962
		},
		{
			"buffer":0,
			"byteLength":48,
			"byteOffset":4128,
			"target":34962
		},
		{
			"buffer":0,
			"byteLength":48,
			"byteOffset":4176,
			"target":34962
		},
		{
			"buffer":0,
			"byteLength":32,
			"byteOffset":4224,
			"target":34962
		},
		{
			"buffer":0,
			"byteLength":48,
			"byteOffset":4256,
			"target":34962
		},
		{
			"buffer":0,
			"byteLength":140,
			"byteOffset":4304
		},
		{
			"buffer":0,
			"byteLength":420,
			"byteOffset":4444
		},
		{
			"buffer":0,
			"byteLength":560,
			"byteOffset":4864
		},
		{
			"buffer":0,
			"byteLength":420,
			"byteOffset":5424
		},
		{
			"buffer":0,
			"byteLength":420,
			"byteOffset":5844
		},
		{
			"buffer":0,
			"byteLength":420,
			"byteOffset":6264
		},
		{
			"buffer":0,
			"byteLength":560,
			"byteOffset":6684
		}
	],
	"samplers":[
		{
			"magFilter":9729,
			"minFilter":9987
		}
	],
	"buffers":[
		{
			"byteLength":7244,
			"uri":"MovePivot.bin"
		}
	]
}
